# xmcd
#
# Track frame offsets:
#	189
#	10799
#	20872
#	30670
#	41909
#	50529
#	60956
#	70186
#	78898
#	89083
#	97974
#	109350
#	118139
#	128863
#	143045
#	159869
#	174457
#	188327
#	203603
#	217559
#
# Disc length: 3103 seconds
#
# Revision: 1
# Processed by: cddbd v1.5.2PL0 Copyright (c) Steve Scherf et al.
# Submitted via: audiograbber 1.83.01
#
DISCID=040c1d14
DTITLE=Sylvie Vartan - L'essentiel ( 20 succès inoubliable )
DYEAR=1900
DGENRE=
TTITLE0=Ne le deçois pas
TTITLE1=Le loco-motion
TTITLE2=Moi je pense encore a toi
TTITLE3=Chance
TTITLE4=Il revient
TTITLE5=En écoutant la pluie
TTITLE6=Je ne vois que toi
TTITLE7=Si je chante
TTITLE8=La la la 
TTITLE9=Fini de pleurer
TTITLE10=La plus belle pour aller danser
TTITLE11=Dum di la
TTITLE12=Il y a deux filles en moi
TTITLE13=Par amour , par pitié
TTITLE14=La maritza
TTITLE15=Bye bye Leroy Brow
TTITLE16=Danse la chante la
TTITLE17=Changement de cavalière
TTITLE18=Qu'est-ce qui fait pleurer les blondes
TTITLE19=L'amour c'est comme une cigarette
EXTD=
EXTT0=
EXTT1=
EXTT2=
EXTT3=
EXTT4=
EXTT5=
EXTT6=
EXTT7=
EXTT8=
EXTT9=
EXTT10=
EXTT11=
EXTT12=
EXTT13=
EXTT14=
EXTT15=
EXTT16=
EXTT17=
EXTT18=
EXTT19=
PLAYORDER=
